<svg width="32" height="32" viewBox="0 0 32 32" fill="none" xmlns="http://www.w3.org/2000/svg">
<path d="M16 21V16M16 16V11M16 16H11M16 16H21M16.0002 31C13.275 31 10.7196 30.2732 8.51708 29.003C8.2995 28.8775 8.19057 28.8147 8.08822 28.7865C7.99297 28.7602 7.90792 28.7512 7.80932 28.758C7.70422 28.7652 7.5955 28.8013 7.37932 28.8735L3.53012 30.1565L3.52708 30.1578C2.71487 30.4287 2.308 30.5643 2.0376 30.4678C1.802 30.3838 1.61632 30.1978 1.5323 29.9623C1.43595 29.692 1.57113 29.2865 1.84148 28.4755L1.8431 28.4705L3.12447 24.6263L3.12752 24.6183C3.19893 24.404 3.2351 24.2955 3.24225 24.191C3.249 24.0923 3.24002 24.0067 3.21368 23.9115C3.18577 23.8105 3.12413 23.7035 3.0019 23.4917L2.99698 23.4832C1.72673 21.2807 1 18.7252 1 16C1 7.71573 7.71573 1 16 1C24.2843 1 31 7.71573 31 16C31 24.2843 24.2845 31 16.0002 31Z" stroke="#8696A0" stroke-width="2" stroke-linecap="round" stroke-linejoin="round"/>
</svg>
