<svg width="40" height="40" viewBox="0 0 40 40" fill="none" xmlns="http://www.w3.org/2000/svg">
<g clip-path="url(#clip0_1_347)">
<path d="M20.0477 0.0943451C31.067 0.0943451 40.0004 9.02755 40.0004 20.0472C40.0004 31.0668 31.067 40 20.0476 40C9.02793 40 0.0947266 31.0668 0.0947266 20.0472C0.0947266 9.02755 9.02793 0.0943451 20.0477 0.0943451Z" fill="#D1D7DB"/>
<path d="M32.7473 32.3802C32.6339 32.2076 32.5045 32.0204 32.3577 31.8226C32.2111 31.6247 32.0473 31.416 31.8656 31.2002C31.6837 30.9843 31.4837 30.7613 31.2648 30.5347C30.9363 30.1947 30.5648 29.8468 30.1471 29.5026C29.5901 29.044 28.9511 28.5925 28.2218 28.177C27.8677 27.9751 27.4911 27.7823 27.0935 27.6006C27.0818 27.5953 27.0713 27.5894 27.0596 27.5842C25.212 26.7464 22.8886 26.1636 19.9999 26.1636C17.1113 26.1636 14.7879 26.7464 12.9403 27.5842C12.8765 27.613 12.8171 27.6442 12.7545 27.6736C12.4845 27.8008 12.225 27.9332 11.9756 28.07C11.8405 28.1442 11.7082 28.2194 11.5792 28.2959C10.9337 28.6783 10.3575 29.0866 9.85276 29.5025C9.43521 29.8464 9.0637 30.1945 8.73503 30.5345C8.51597 30.7611 8.31616 30.9843 8.13427 31.2C7.95238 31.4159 7.78861 31.6245 7.64201 31.8225C7.49521 32.0204 7.36578 32.2074 7.25238 32.38C7.14729 32.54 7.05748 32.686 6.97936 32.8185C6.97314 32.8291 6.96559 32.8409 6.95974 32.8513C6.87767 32.9917 6.81069 33.114 6.75786 33.2147C6.65238 33.4162 6.60352 33.5313 6.60352 33.5313V33.6064C10.0535 36.9889 14.7775 39.0753 19.9894 39.0753C25.2116 39.0753 29.9443 36.9804 33.396 33.5857V33.5311C33.396 33.5311 33.2792 33.2575 33.0201 32.8183C32.9422 32.6864 32.8522 32.5402 32.7473 32.3802Z" fill="#111B21"/>
<path d="M20.0003 23.6792C20.4994 23.6792 20.9837 23.6315 21.4494 23.5402C21.6822 23.4945 21.9103 23.4379 22.1332 23.3711C22.4675 23.2708 22.7901 23.147 23.0992 23.0017C23.5113 22.8079 23.8996 22.5757 24.2596 22.3092C24.7998 21.9094 25.2766 21.4326 25.6764 20.8925C25.8096 20.7125 25.9343 20.5255 26.05 20.3319C26.2233 20.0415 26.3762 19.7366 26.5069 19.4187C26.5941 19.2068 26.6715 18.9891 26.7383 18.7662C26.7716 18.6547 26.8026 18.5421 26.8307 18.4281C26.8871 18.2002 26.933 17.9672 26.9675 17.7298C27.0194 17.3738 27.0462 17.0077 27.0462 16.6334C27.0462 16.2591 27.0194 15.8928 26.9675 15.537C26.9328 15.2996 26.8871 15.0666 26.8307 14.8387C26.8024 14.7247 26.7716 14.6119 26.7383 14.5004C26.6715 14.2775 26.5941 14.0598 26.5069 13.8479C26.3762 13.53 26.2232 13.2251 26.05 12.9347C25.9343 12.7411 25.8096 12.5541 25.6764 12.3741C25.2766 11.834 24.7998 11.3572 24.2596 10.9574C23.8994 10.6909 23.5113 10.4587 23.0992 10.2649C22.7901 10.1196 22.4675 9.99585 22.1332 9.89547C21.9103 9.82849 21.6822 9.77188 21.4494 9.72641C20.9837 9.63509 20.4994 9.58736 20.0003 9.58736C16.0075 9.58736 12.9541 12.6408 12.9541 16.6336C12.9541 20.6258 16.0075 23.6792 20.0003 23.6792Z" fill="#111B21"/>
</g>
<defs>
<clipPath id="clip0_1_347">
<rect width="40" height="40" fill="white"/>
</clipPath>
</defs>
</svg>
